# xmcd
#
# Track frame offsets:
#	150
#	45874
#	74247
#	90066
#	137032
#	188971
#	241202
#
# Disc length: 3765 seconds
#
# Revision: 1
# Processed by: cddbd v1.5.2PL0 Copyright (c) Steve Scherf et al.
# Submitted via: audiograbber 1.83.01
#
DISCID=560eb307
DTITLE=Grateful Dead - 77-05-09 War Memorial Auditorium, Buffalo NY
DYEAR=1900
DGENRE=
TTITLE0=Estimated Prophet
TTITLE1=The Other One
TTITLE2=Drums
TTITLE3=Not Fade Away
TTITLE4=Comes A Time
TTITLE5=Sugar Magnolia
TTITLE6=Uncle John's Band
EXTD=
EXTT0=
EXTT1=
EXTT2=
EXTT3=
EXTT4=
EXTT5=
EXTT6=
PLAYORDER=
